<?xml version="1.0" encoding="UTF-8" standalone="no"?>
<!-- Created with Inkscape (http://www.inkscape.org/) -->
<!DOCTYPE svg PUBLIC "-//W3C//DTD SVG 1.1//EN" "http://www.w3.org/Graphics/SVG/1.1/DTD/svg11.dtd">
<svg
   xmlns:svg="http://www.w3.org/2000/svg"
   xmlns="http://www.w3.org/2000/svg"
   version="1.1"
   width="400"
   height="400"
   id="svg2924"
   xml:space="preserve"><defs
     id="defs2928" /><g
     transform="matrix(0,1.25,1.25,0,0,-344.02502)"
     id="g2934"><path
       d="m 283.33765,160 c 0,83.69011 68.25527,152 151.87396,152 83.6187,0 151.89077,-68.30989 151.89077,-152 0,-83.68591 -68.27207,-152 -151.89077,-152 -83.61869,0 -151.87396,68.31409 -151.87396,152 z m 240.08866,-72.28833 -0.87752,0 0,0.1378 0.87752,0 0,-0.1378 z m -0.87803,0 z m -8.4148,0.87803 32.33166,0 0,11.39759 c 0,5.83953 -1.36115,10.41872 -3.95743,12.90157 -2.73912,2.59628 -7.19229,4.21791 -12.76715,4.21791 -3.8398,0 -6.93601,-1.23933 -9.171,-2.60048 -2.22238,-1.23933 -4.2179,-3.47851 -5.07493,-6.07899 -0.73939,-2.60048 -1.36115,-5.83953 -1.36115,-9.41887 l 0,-10.41873 z m -3.35668,-4.09607 0,16.73718 c 0,3.97424 0.87803,7.43595 1.99972,10.03643 1.10069,2.61729 3.09621,4.83967 4.81446,6.20082 1.86109,1.37796 4.09608,2.47865 6.07479,2.85675 2.23499,0.7436 4.33554,0.99986 6.69236,0.99986 5.81432,0 10.77162,-1.61742 14.1283,-4.83966 3.33567,-3.21805 5.31439,-8.43581 5.31439,-15.2542 l 0,-16.73718 -39.02402,0 z m 3.35668,125.83975 14.74586,0 0,12.89738 c 0,3.10041 -0.87803,5.82272 -1.85689,7.67961 -1.12169,1.73925 -3.35668,2.73911 -6.19662,2.73911 -1.85689,0 -3.59614,-1.23932 -4.71363,-2.73911 -1.1175,-1.60062 -1.97872,-3.95744 -1.97872,-7.05785 l 0,-13.51914 z m 16.46411,20.21569 c 0.49993,1.86109 1.61742,3.33988 2.97858,3.96164 1.73925,0.61756 3.71797,1.23932 5.57486,1.23932 2.23498,0 4.45737,0.62177 6.45289,0.62177 1.97872,0 3.33567,0.87803 3.8356,1.49559 l 0.3613,0 0,-4.596 c -0.86123,-0.24367 -1.97872,-0.86123 -3.09621,-0.86123 -1.10069,0 -3.09621,-0.3781 -4.69683,-0.3781 -1.97872,0 -3.71798,-0.49993 -4.71364,-0.49993 -1.73925,-0.36129 -3.10041,-1.36116 -3.95743,-2.22238 -0.7394,-0.87803 -1.36116,-2.97858 -1.36116,-5.45723 l 0,-13.51914 17.82527,0 0,-3.96164 -39.02402,0 0,17.48078 c 0,3.10041 0.62176,5.69669 1.49979,7.67961 0.7394,1.73926 2.21818,3.59614 3.59614,4.47837 1.71825,0.97886 3.57934,1.60062 5.57486,1.60062 2.21818,0 4.45317,-0.98306 5.81433,-1.86109 1.35695,-1.23932 2.85674,-3.10041 3.33567,-5.20096 z m 15.86755,-53.19012 0,22.5557 3.33568,0 0,-26.51734 -39.02402,0 0,3.96164 35.68834,0 z m 4.45317,-33.35674 c 0,-6.94022 -4.69683,-15.85915 -12.00674,-17.47657 -4.45737,-0.86123 -12.76715,-1.98292 -20.82066,1.97871 -5.93615,2.97858 -8.17114,9.41887 -8.17114,16.37589 0,7.06205 2.97438,15.85915 10.64979,17.72024 l 0.11763,-3.96164 c -2.21818,-0.87803 -4.45316,-3.10041 -5.19256,-4.45736 -2.60048,-5.3396 -3.33987,-12.03616 -0.49993,-17.49759 3.09621,-5.94035 10.41033,-7.30151 16.72458,-7.30151 9.9104,0 14.98533,5.94036 15.86336,15.24159 0.11763,2.11736 -0.26047,13.27548 -1.36116,14.99793 l -13.3847,0 0,-12.26301 -2.71812,0.62176 0,15.11976 18.58147,0 c 1.60062,-5.82272 2.21818,-12.64111 2.21818,-19.0982 z m -50.66947,50.33338 -14.36776,-29.87402 -11.51101,25.05536 25.87877,4.81866 z m -67.37724,75.51057 35.92361,-77.36746 -18.3378,-3.4617 -17.58581,80.82916 z m 67.25541,-144.93795 -14.24593,29.89083 -11.64545,-25.05536 25.89138,-4.83547 z m -43.85528,34.71369 -5.19676,-25.03856 19.44269,-3.71797 13.26707,28.75653 -13.12844,28.77334 -19.45949,-3.71798 5.07493,-25.05536 z m -23.53877,-110.20746 36.06225,77.35066 -18.45964,3.47851 -17.60261,-80.82917 z m -121.64285,110.20746 136.64918,-24.53862 4.9531,24.53862 -4.83547,24.55543 -136.76681,-24.55543 z m -19.69895,0 155.4701,-28.6389 -24.51762,-111.942509 50.29137,107.107049 33.94489,-6.32266 -18.58147,39.79702 18.58147,39.81383 -33.82726,-6.20083 -50.29137,106.98522 24.51762,-111.94672 -155.58773,-28.6515"
       id="path2968"
       style="fill:#344e94;fill-opacity:1;fill-rule:evenodd;stroke:none" /></g></svg>